<svg width="199" height="52" viewBox="0 0 199 52" fill="none" xmlns="http://www.w3.org/2000/svg">
<path d="M0.0200001 42V2.4H5.54V42H0.0200001ZM1.76 42V37.14H23.54V42H1.76ZM36.9261 42.78C33.3661 42.78 30.7261 41.52 29.0061 39C27.3261 36.48 26.4861 32.6 26.4861 27.36V10.98H32.0061V27.12C32.0061 30.84 32.5061 33.56 33.5061 35.28C34.5061 37 36.1461 37.86 38.4261 37.86C39.7861 37.86 40.9861 37.54 42.0261 36.9C43.0661 36.26 43.9461 35.32 44.6661 34.08C45.4261 32.84 46.0061 31.3 46.4061 29.46C46.8461 27.58 47.1061 25.42 47.1861 22.98V10.98H52.6461V27.42L52.7061 42H47.7261L48.4461 30.18H47.7261C47.3261 33.1 46.6461 35.5 45.6861 37.38C44.7661 39.22 43.5861 40.58 42.1461 41.46C40.7061 42.34 38.9661 42.78 36.9261 42.78ZM73.573 42.78C71.053 42.78 68.853 42.38 66.973 41.58C65.093 40.74 63.533 39.6 62.293 38.16C61.093 36.68 60.193 34.98 59.593 33.06C59.033 31.1 58.753 28.98 58.753 26.7C58.753 24.38 59.053 22.22 59.653 20.22C60.253 18.22 61.153 16.48 62.353 15C63.593 13.48 65.113 12.3 66.913 11.46C68.753 10.62 70.873 10.2 73.273 10.2C75.913 10.2 78.153 10.7 79.993 11.7C81.833 12.66 83.253 13.96 84.253 15.6C85.253 17.24 85.793 19.08 85.873 21.12L80.773 22.08C80.733 20.68 80.393 19.44 79.753 18.36C79.153 17.28 78.293 16.44 77.173 15.84C76.093 15.2 74.793 14.88 73.273 14.88C71.993 14.88 70.793 15.12 69.673 15.6C68.593 16.08 67.653 16.82 66.853 17.82C66.053 18.78 65.413 19.98 64.933 21.42C64.493 22.86 64.273 24.56 64.273 26.52C64.273 29.12 64.653 31.3 65.413 33.06C66.213 34.78 67.313 36.08 68.713 36.96C70.113 37.8 71.773 38.22 73.693 38.22C75.453 38.22 76.913 37.88 78.073 37.2C79.233 36.48 80.113 35.54 80.713 34.38C81.313 33.18 81.653 31.84 81.733 30.36L86.833 31.08C86.713 32.88 86.333 34.5 85.693 35.94C85.053 37.38 84.173 38.62 83.053 39.66C81.933 40.66 80.573 41.44 78.973 42C77.373 42.52 75.573 42.78 73.573 42.78ZM91.8866 42V10.98H97.3466V42H91.8866ZM94.6466 6.48C93.4466 6.48 92.5266 6.22 91.8866 5.7C91.2866 5.18 90.9866 4.44 90.9866 3.48C90.9866 2.48 91.2866 1.74 91.8866 1.26C92.5266 0.739998 93.4466 0.479998 94.6466 0.479998C95.8466 0.479998 96.7466 0.739998 97.3466 1.26C97.9866 1.74 98.3066 2.48 98.3066 3.48C98.3066 4.44 97.9866 5.18 97.3466 5.7C96.7466 6.22 95.8466 6.48 94.6466 6.48ZM115.88 42.78C113.48 42.78 111.34 42.16 109.46 40.92C107.58 39.68 106.1 37.84 105.02 35.4C103.98 32.96 103.46 29.98 103.46 26.46C103.46 23.1 103.96 20.2 104.96 17.76C105.96 15.32 107.38 13.46 109.22 12.18C111.06 10.86 113.22 10.2 115.7 10.2C117.86 10.2 119.66 10.68 121.1 11.64C122.58 12.56 123.76 13.86 124.64 15.54C125.52 17.22 126.16 19.2 126.56 21.48H127.34C127.1 19.92 126.9 18.44 126.74 17.04C126.58 15.64 126.44 14.34 126.32 13.14C126.24 11.94 126.2 10.84 126.2 9.84V0.659999H131.72L131.66 27.6L131.78 42H126.74L127.22 32.4H126.5C125.98 34.64 125.26 36.54 124.34 38.1C123.42 39.62 122.26 40.78 120.86 41.58C119.46 42.38 117.8 42.78 115.88 42.78ZM117.08 38.04C118.6 38.04 119.92 37.68 121.04 36.96C122.2 36.2 123.14 35.26 123.86 34.14C124.62 32.98 125.18 31.76 125.54 30.48C125.94 29.2 126.14 28.02 126.14 26.94V26.34C126.14 25.62 126.04 24.78 125.84 23.82C125.64 22.82 125.32 21.82 124.88 20.82C124.44 19.82 123.86 18.88 123.14 18C122.46 17.12 121.62 16.42 120.62 15.9C119.66 15.34 118.52 15.06 117.2 15.06C115.52 15.06 114.06 15.54 112.82 16.5C111.62 17.46 110.7 18.82 110.06 20.58C109.42 22.3 109.1 24.32 109.1 26.64C109.1 28.92 109.4 30.92 110 32.64C110.64 34.36 111.56 35.7 112.76 36.66C113.96 37.58 115.4 38.04 117.08 38.04ZM139.055 42V10.98H144.515V42H139.055ZM141.815 6.48C140.615 6.48 139.695 6.22 139.055 5.7C138.455 5.18 138.155 4.44 138.155 3.48C138.155 2.48 138.455 1.74 139.055 1.26C139.695 0.739998 140.615 0.479998 141.815 0.479998C143.015 0.479998 143.915 0.739998 144.515 1.26C145.155 1.74 145.475 2.48 145.475 3.48C145.475 4.44 145.155 5.18 144.515 5.7C143.915 6.22 143.015 6.48 141.815 6.48ZM161.848 42.6C159.008 42.6 156.868 41.82 155.428 40.26C154.028 38.66 153.328 36.32 153.328 33.24V15.6H149.068L149.128 11.28H151.288C152.488 11.24 153.348 10.96 153.868 10.44C154.388 9.88 154.708 9.02 154.828 7.86L155.248 4.2H158.668V10.98H167.188V15.66H158.668V33C158.668 34.6 159.028 35.76 159.748 36.48C160.508 37.2 161.548 37.56 162.868 37.56C163.588 37.56 164.328 37.46 165.088 37.26C165.888 37.06 166.608 36.7 167.248 36.18V41.52C166.248 41.88 165.308 42.14 164.428 42.3C163.548 42.5 162.688 42.6 161.848 42.6ZM183.253 51.6C181.693 51.6 180.133 51.42 178.573 51.06C177.053 50.74 175.653 50.2 174.373 49.44C173.133 48.72 172.053 47.8 171.133 46.68L173.833 42.42C174.873 43.86 176.213 44.9 177.853 45.54C179.493 46.22 181.233 46.56 183.073 46.56C185.553 46.56 187.533 46.02 189.013 44.94C190.493 43.9 191.573 42.38 192.253 40.38C192.933 38.38 193.273 36.04 193.273 33.36L193.873 26.52H193.153C192.793 29.6 192.113 32.06 191.113 33.9C190.113 35.74 188.873 37.08 187.393 37.92C185.953 38.76 184.313 39.18 182.473 39.18C180.153 39.18 178.233 38.6 176.713 37.44C175.193 36.24 174.053 34.52 173.293 32.28C172.573 30.04 172.213 27.36 172.213 24.24V10.98H177.673V23.16C177.673 26.92 178.193 29.7 179.233 31.5C180.313 33.3 181.953 34.2 184.153 34.2C185.393 34.2 186.513 33.92 187.513 33.36C188.553 32.76 189.433 31.86 190.153 30.66C190.873 29.46 191.433 27.98 191.833 26.22C192.273 24.42 192.513 22.32 192.553 19.92V10.98H198.013V33.54C198.013 35.34 197.873 37.12 197.593 38.88C197.313 40.64 196.833 42.28 196.153 43.8C195.513 45.32 194.633 46.66 193.513 47.82C192.393 49.02 190.993 49.94 189.313 50.58C187.633 51.26 185.613 51.6 183.253 51.6Z" fill="black"/>
</svg>
